<svg id="Layer_1" data-name="Layer 1" xmlns="http://www.w3.org/2000/svg" xmlns:xlink="http://www.w3.org/1999/xlink" viewBox="0 0 1000 1000"><defs><style>.cls-1{fill:#fbdf00;}.cls-2{fill:#663515;}.cls-3{fill:url(#linear-gradient);}.cls-4{fill:url(#linear-gradient-2);}.cls-5{fill:url(#linear-gradient-3);}.cls-6{fill:url(#linear-gradient-4);}.cls-7{fill:url(#linear-gradient-5);}.cls-8{fill:url(#linear-gradient-6);}.cls-9{fill:url(#linear-gradient-7);}.cls-10{fill:url(#radial-gradient);}.cls-11{fill:url(#linear-gradient-8);}.cls-12{fill:url(#radial-gradient-2);}.cls-13{fill:url(#linear-gradient-9);}.cls-14{fill:url(#radial-gradient-3);}.cls-15{fill:url(#linear-gradient-10);}.cls-16{fill:url(#radial-gradient-4);}.cls-17{fill:url(#linear-gradient-11);}.cls-18{fill:url(#radial-gradient-5);}.cls-19{fill:url(#radial-gradient-6);}.cls-20{fill:url(#radial-gradient-7);}.cls-21{fill:url(#radial-gradient-8);}.cls-22{fill:url(#radial-gradient-9);}.cls-23{fill:url(#radial-gradient-10);}.cls-24{fill:url(#linear-gradient-12);}.cls-25{fill:url(#linear-gradient-13);}.cls-26{fill:url(#linear-gradient-14);}.cls-27{fill:url(#linear-gradient-15);}.cls-28{fill:url(#linear-gradient-16);}.cls-29{fill:url(#linear-gradient-17);}.cls-30{fill:url(#radial-gradient-11);}.cls-31{fill:url(#radial-gradient-12);}.cls-32{fill:url(#radial-gradient-13);}.cls-33{fill:url(#linear-gradient-18);}.cls-34{fill:url(#radial-gradient-14);}.cls-35{fill:url(#radial-gradient-15);}.cls-36{fill:url(#radial-gradient-16);}.cls-37{fill:url(#linear-gradient-19);}.cls-38{fill:url(#linear-gradient-20);}.cls-39{fill:url(#linear-gradient-21);}.cls-40{fill:url(#linear-gradient-22);}.cls-41{fill:url(#linear-gradient-23);}.cls-42{fill:url(#linear-gradient-24);}.cls-43{fill:url(#linear-gradient-25);}.cls-44{fill:url(#radial-gradient-17);}.cls-45{fill:url(#radial-gradient-18);}.cls-46{fill:url(#radial-gradient-19);}.cls-47{fill:url(#linear-gradient-26);}.cls-48{fill:url(#linear-gradient-27);}.cls-49{fill:url(#linear-gradient-28);}.cls-50{fill:url(#linear-gradient-29);}.cls-51{fill:url(#linear-gradient-30);}.cls-52{fill:url(#radial-gradient-20);}.cls-53{fill:url(#radial-gradient-21);}.cls-54{fill:url(#radial-gradient-22);}.cls-55{fill:url(#radial-gradient-23);}.cls-56{fill:url(#radial-gradient-24);}.cls-57{fill:url(#radial-gradient-25);}.cls-58{fill:url(#radial-gradient-26);}</style><linearGradient id="linear-gradient" x1="103.34" y1="52.52" x2="104.34" y2="52.52" gradientTransform="matrix(0, 347.38, 374.76, 0, -19568.11, -35587.81)" gradientUnits="userSpaceOnUse"><stop offset="0" stop-color="#653515"/><stop offset="0.03" stop-color="#a7800c"/><stop offset="0.06" stop-color="#fbde00"/><stop offset="0.88" stop-color="#fbde00"/><stop offset="0.89" stop-color="#f4d601"/><stop offset="0.91" stop-color="#e0c004"/><stop offset="0.94" stop-color="#c09c08"/><stop offset="0.96" stop-color="#946a0e"/><stop offset="0.99" stop-color="#653515"/><stop offset="1" stop-color="#653515"/></linearGradient><linearGradient id="linear-gradient-2" x1="103.34" y1="52.52" x2="104.34" y2="52.52" gradientTransform="matrix(98.18, 287.25, 309.89, -91.01, -26156.65, -24544.03)" gradientUnits="userSpaceOnUse"><stop offset="0" stop-color="#fbde00"/><stop offset="0.04" stop-color="#fbde00"/><stop offset="0.91" stop-color="#fbde00"/><stop offset="0.91" stop-color="#f4d601"/><stop offset="0.92" stop-color="#e0c004"/><stop offset="0.93" stop-color="#c09c08"/><stop offset="0.94" stop-color="#946a0e"/><stop offset="0.96" stop-color="#653515"/><stop offset="1" stop-color="#653515"/></linearGradient><linearGradient id="linear-gradient-3" x1="103.34" y1="52.52" x2="104.34" y2="52.52" gradientTransform="matrix(0, -276.05, -297.82, 0, 15754.04, 29159.4)" gradientUnits="userSpaceOnUse"><stop offset="0" stop-color="#653515"/><stop offset="0.01" stop-color="#653515"/><stop offset="0.06" stop-color="#653515"/><stop offset="0.87" stop-color="#653515"/><stop offset="1" stop-color="#653515"/></linearGradient><linearGradient id="linear-gradient-4" x1="103.34" y1="52.52" x2="104.34" y2="52.52" gradientTransform="matrix(94.22, 234.41, 252.89, -87.34, -22755.94, -19259.1)" gradientUnits="userSpaceOnUse"><stop offset="0" stop-color="#fbde00"/><stop offset="0.02" stop-color="#fbde00"/><stop offset="0.04" stop-color="#fbda02" stop-opacity="0.94"/><stop offset="0.09" stop-color="#fbcf08" stop-opacity="0.8"/><stop offset="0.19" stop-color="#faca0b" stop-opacity="0.71"/><stop offset="0.39" stop-color="#f9c013" stop-opacity="0.5"/><stop offset="0.5" stop-color="#fbcf08" stop-opacity="0.2"/><stop offset="0.56" stop-color="#faca0b" stop-opacity="0.29"/><stop offset="0.65" stop-color="#f9c013" stop-opacity="0.5"/><stop offset="0.92" stop-color="#fbcf08" stop-opacity="0.5"/><stop offset="0.95" stop-color="#fbd405" stop-opacity="0.68"/><stop offset="0.99" stop-color="#fbde00"/><stop offset="1" stop-color="#fbde00"/></linearGradient><linearGradient id="linear-gradient-5" x1="103.34" y1="52.52" x2="104.34" y2="52.52" gradientTransform="matrix(124.67, 277.25, 299.1, -115.56, -28338.71, -22255.5)" gradientUnits="userSpaceOnUse"><stop offset="0" stop-color="#32150c" stop-opacity="0.2"/><stop offset="0.06" stop-color="#32150c" stop-opacity="0.2"/><stop offset="0.34" stop-color="#32150c" stop-opacity="0.5"/><stop offset="0.63" stop-color="#32150c" stop-opacity="0.2"/><stop offset="0.86" stop-color="#32150c" stop-opacity="0.5"/><stop offset="0.99" stop-color="#32150c" stop-opacity="0"/><stop offset="1" stop-color="#32150c" stop-opacity="0"/></linearGradient><linearGradient id="linear-gradient-6" x1="103.34" y1="52.52" x2="104.34" y2="52.52" gradientTransform="matrix(-92.1, 250.96, 270.75, 85.37, -4443.08, -30057.2)" gradientUnits="userSpaceOnUse"><stop offset="0" stop-color="#32150c" stop-opacity="0.2"/><stop offset="0.05" stop-color="#32150c" stop-opacity="0.2"/><stop offset="0.34" stop-color="#32150c" stop-opacity="0.5"/><stop offset="0.63" stop-color="#32150c" stop-opacity="0.2"/><stop offset="0.86" stop-color="#32150c" stop-opacity="0.5"/><stop offset="0.99" stop-color="#32150c" stop-opacity="0"/><stop offset="1" stop-color="#32150c" stop-opacity="0"/></linearGradient><linearGradient id="linear-gradient-7" x1="103.34" y1="52.52" x2="104.34" y2="52.52" gradientTransform="matrix(-97.58, 254.63, 274.71, 90.45, -4091.57, -30712.33)" xlink:href="#linear-gradient-4"/><radialGradient id="radial-gradient" cx="103.34" cy="52.52" r="1" gradientTransform="matrix(28.12, 0, 0, -17.5, -2542.69, 1558)" gradientUnits="userSpaceOnUse"><stop offset="0" stop-color="#fff" stop-opacity="0.85"/><stop offset="0.37" stop-color="#fff" stop-opacity="0.9"/><stop offset="1" stop-color="#fff" stop-opacity="0"/></radialGradient><linearGradient id="linear-gradient-8" x1="103.34" y1="52.52" x2="104.34" y2="52.52" gradientTransform="matrix(103.55, 0, 0, -95.98, -10495.33, 5270.88)" gradientUnits="userSpaceOnUse"><stop offset="0" stop-color="#32150c"/><stop offset="0.15" stop-color="#32150c" stop-opacity="0.5"/><stop offset="0.4" stop-color="#32150c" stop-opacity="0"/><stop offset="0.82" stop-color="#32150c" stop-opacity="0"/><stop offset="0.99" stop-color="#32150c"/><stop offset="1" stop-color="#32150c"/></linearGradient><radialGradient id="radial-gradient-2" cx="103.34" cy="52.52" r="1" gradientTransform="matrix(26.56, -14.56, 12.7, 19.89, -3153.98, 811.76)" gradientUnits="userSpaceOnUse"><stop offset="0" stop-color="#fff" stop-opacity="0.85"/><stop offset="0.27" stop-color="#fff" stop-opacity="0.5"/><stop offset="1" stop-color="#fff" stop-opacity="0"/></radialGradient><linearGradient id="linear-gradient-9" x1="103.34" y1="52.52" x2="104.34" y2="52.52" gradientTransform="matrix(-40.79, -33.73, -36.38, 37.81, 6547.18, 2140.24)" gradientUnits="userSpaceOnUse"><stop offset="0" stop-color="#fbde00"/><stop offset="0.06" stop-color="#fbde00"/><stop offset="0.07" stop-color="#f4d700" stop-opacity="0.97"/><stop offset="0.09" stop-color="#e1c402" stop-opacity="0.87"/><stop offset="0.11" stop-color="#c2a503" stop-opacity="0.72"/><stop offset="0.14" stop-color="#977a06" stop-opacity="0.5"/><stop offset="0.17" stop-color="#604309" stop-opacity="0.23"/><stop offset="0.19" stop-color="#32150c" stop-opacity="0"/><stop offset="0.4" stop-color="#32150c"/><stop offset="0.79" stop-color="#32150c" stop-opacity="0.5"/><stop offset="0.98" stop-color="#32150c" stop-opacity="0"/><stop offset="1" stop-color="#32150c" stop-opacity="0"/></linearGradient><radialGradient id="radial-gradient-3" cx="103.34" cy="52.52" r="1" gradientTransform="matrix(8.03, 0.33, -0.57, 11.7, -534.97, -301.06)" gradientUnits="userSpaceOnUse"><stop offset="0" stop-color="#fff" stop-opacity="0.85"/><stop offset="0.68" stop-color="#fff" stop-opacity="0.5"/><stop offset="1" stop-color="#fff" stop-opacity="0"/></radialGradient><linearGradient id="linear-gradient-10" x1="103.34" y1="52.52" x2="104.34" y2="52.52" gradientTransform="matrix(-14.95, -21.96, -23.69, 13.85, 2975.58, 2177.28)" gradientUnits="userSpaceOnUse"><stop offset="0" stop-color="#fbde00"/><stop offset="0" stop-color="#fbde00"/><stop offset="0.01" stop-color="#f4d700" stop-opacity="0.97"/><stop offset="0.04" stop-color="#e1c402" stop-opacity="0.87"/><stop offset="0.07" stop-color="#c2a503" stop-opacity="0.72"/><stop offset="0.1" stop-color="#977a06" stop-opacity="0.5"/><stop offset="0.13" stop-color="#604309" stop-opacity="0.23"/><stop offset="0.16" stop-color="#32150c" stop-opacity="0"/><stop offset="0.33" stop-color="#32150c"/><stop offset="0.7" stop-color="#32150c" stop-opacity="0.5"/><stop offset="0.99" stop-color="#32150c" stop-opacity="0"/><stop offset="1" stop-color="#32150c" stop-opacity="0"/></linearGradient><radialGradient id="radial-gradient-4" cx="103.34" cy="52.52" gradientTransform="matrix(37.84, 0, 0, -19.67, -3772.27, 1673.02)" xlink:href="#radial-gradient"/><linearGradient id="linear-gradient-11" x1="103.34" y1="52.52" x2="104.34" y2="52.52" gradientTransform="matrix(104.95, 0, 0, -97.29, -10640.84, 5339.43)" gradientUnits="userSpaceOnUse"><stop offset="0" stop-color="#fff" stop-opacity="0.85"/><stop offset="0.14" stop-color="#fff" stop-opacity="0.5"/><stop offset="0.34" stop-color="#fff" stop-opacity="0"/><stop offset="0.75" stop-color="#fff" stop-opacity="0"/><stop offset="0.96" stop-color="#fff" stop-opacity="0.5"/><stop offset="1" stop-color="#fff" stop-opacity="0.85"/><stop offset="1" stop-color="#fff" stop-opacity="0.85"/></linearGradient><radialGradient id="radial-gradient-5" cx="103.34" cy="52.52" r="1" gradientTransform="matrix(86.91, 0, 0, -2.08, -8723.74, 616.5)" gradientUnits="userSpaceOnUse"><stop offset="0" stop-color="#32150c" stop-opacity="0.5"/><stop offset="1" stop-color="#32150c" stop-opacity="0"/></radialGradient><radialGradient id="radial-gradient-6" cx="103.34" cy="52.52" gradientTransform="matrix(102.39, 249.35, 3.79, -1.34, -10467.17, -25219.34)" xlink:href="#radial-gradient-5"/><radialGradient id="radial-gradient-7" cx="103.34" cy="52.52" gradientTransform="matrix(-64.74, 172.47, -3.34, -1.08, 7069.21, -17274.04)" xlink:href="#radial-gradient-5"/><radialGradient id="radial-gradient-8" cx="103.34" cy="52.52" r="1" gradientTransform="matrix(160.55, 0, 0, -1.95, -16334.73, 609.63)" gradientUnits="userSpaceOnUse"><stop offset="0" stop-color="#fff" stop-opacity="0.7"/><stop offset="0.94" stop-color="#fff" stop-opacity="0"/><stop offset="1" stop-color="#fff" stop-opacity="0"/></radialGradient><radialGradient id="radial-gradient-9" cx="103.34" cy="52.52" gradientTransform="matrix(197.24, 488.3, -3.21, 1.11, -19897.97, -50031.06)" xlink:href="#radial-gradient-8"/><radialGradient id="radial-gradient-10" cx="103.34" cy="52.52" gradientTransform="matrix(-108.25, 285.56, -2.51, -0.82, 11524.38, -28977.83)" xlink:href="#radial-gradient-8"/><linearGradient id="linear-gradient-12" x1="103.34" y1="52.52" x2="104.34" y2="52.52" gradientTransform="matrix(-86.33, 306.77, 305.08, 86.81, -6598.76, -35944.43)" gradientUnits="userSpaceOnUse"><stop offset="0" stop-color="#653515"/><stop offset="0.52" stop-color="#653515"/><stop offset="0.74" stop-color="#a7800c"/><stop offset="1" stop-color="#fbde00"/></linearGradient><linearGradient id="linear-gradient-13" x1="103.34" y1="52.52" x2="104.34" y2="52.52" gradientTransform="matrix(83.37, 304.77, 303.09, -83.83, -24228.03, -26762.29)" gradientUnits="userSpaceOnUse"><stop offset="0" stop-color="#fbde00"/><stop offset="0.04" stop-color="#fbde00"/><stop offset="0.93" stop-color="#fbde00"/><stop offset="0.93" stop-color="#f4d601"/><stop offset="0.95" stop-color="#e0c004"/><stop offset="0.96" stop-color="#c09c08"/><stop offset="0.98" stop-color="#946a0e"/><stop offset="1" stop-color="#653515"/></linearGradient><linearGradient id="linear-gradient-14" x1="103.34" y1="52.52" x2="104.34" y2="52.52" gradientTransform="matrix(99.6, -262.1, -260.66, -100.15, 3825.2, 32959.53)" gradientUnits="userSpaceOnUse"><stop offset="0" stop-color="#653515"/><stop offset="0.29" stop-color="#653515"/><stop offset="0.53" stop-color="#a7800c"/><stop offset="0.81" stop-color="#fbde00"/><stop offset="1" stop-color="#fbde00"/></linearGradient><linearGradient id="linear-gradient-15" x1="103.34" y1="52.52" x2="104.34" y2="52.52" gradientTransform="matrix(102.34, -84.73, -84.27, -102.9, -5772.13, 14622.12)" gradientUnits="userSpaceOnUse"><stop offset="0" stop-color="#653515"/><stop offset="0.66" stop-color="#653515"/><stop offset="0.67" stop-color="#a7800c"/><stop offset="0.69" stop-color="#fbde00"/><stop offset="1" stop-color="#fbde00"/></linearGradient><linearGradient id="linear-gradient-16" x1="103.34" y1="52.52" x2="104.34" y2="52.52" gradientTransform="matrix(0, 272.56, 271.06, 0, -13956.72, -27833.18)" xlink:href="#linear-gradient-4"/><linearGradient id="linear-gradient-17" x1="103.34" y1="52.52" x2="104.34" y2="52.52" gradientTransform="matrix(79.71, 306.83, 305.14, -80.15, -23897.64, -27172.05)" gradientUnits="userSpaceOnUse"><stop offset="0" stop-color="#32150c"/><stop offset="0" stop-color="#32150c"/><stop offset="0.05" stop-color="#32150c" stop-opacity="0"/><stop offset="0.16" stop-color="#32150c" stop-opacity="0.2"/><stop offset="0.34" stop-color="#32150c" stop-opacity="0.5"/><stop offset="0.58" stop-color="#32150c" stop-opacity="0.2"/><stop offset="0.77" stop-color="#32150c" stop-opacity="0.5"/><stop offset="0.87" stop-color="#32150c" stop-opacity="0"/><stop offset="0.95" stop-color="#32150c"/><stop offset="0.99" stop-color="#32150c" stop-opacity="0"/><stop offset="1" stop-color="#32150c" stop-opacity="0"/></linearGradient><radialGradient id="radial-gradient-11" cx="103.34" cy="52.52" gradientTransform="matrix(20.31, 3.56, -2.93, 16.86, -1599.71, -933.08)" xlink:href="#radial-gradient-3"/><radialGradient id="radial-gradient-12" cx="103.34" cy="52.52" r="1" gradientTransform="matrix(42.14, 0, 0, -42.37, -3786.07, 2591.43)" gradientUnits="userSpaceOnUse"><stop offset="0" stop-color="#fff" stop-opacity="0.85"/><stop offset="0.35" stop-color="#fff" stop-opacity="0.5"/><stop offset="1" stop-color="#fff" stop-opacity="0"/></radialGradient><radialGradient id="radial-gradient-13" cx="103.34" cy="52.52" r="1" gradientTransform="translate(-3912.29 -1924.55) scale(43.42 43.66)" gradientUnits="userSpaceOnUse"><stop offset="0" stop-color="#32150c"/><stop offset="0.54" stop-color="#32150c" stop-opacity="0.5"/><stop offset="1" stop-color="#32150c" stop-opacity="0"/></radialGradient><linearGradient id="linear-gradient-18" x1="103.34" y1="52.52" x2="104.34" y2="52.52" gradientTransform="matrix(88.24, 0, 0, -88.72, -8800.44, 4869.63)" gradientUnits="userSpaceOnUse"><stop offset="0" stop-color="#fbde00"/><stop offset="0.01" stop-color="#fbde00"/><stop offset="0.03" stop-color="#f3d600" stop-opacity="0.98"/><stop offset="0.05" stop-color="#dec102" stop-opacity="0.93"/><stop offset="0.08" stop-color="#bc9f04" stop-opacity="0.84"/><stop offset="0.12" stop-color="#8c6f07" stop-opacity="0.72"/><stop offset="0.16" stop-color="#4f320a" stop-opacity="0.57"/><stop offset="0.17" stop-color="#32150c" stop-opacity="0.5"/><stop offset="0.42" stop-color="#32150c"/><stop offset="0.58" stop-color="#32150c"/><stop offset="0.73" stop-color="#32150c" stop-opacity="0.5"/><stop offset="0.94" stop-color="#32150c" stop-opacity="0"/><stop offset="1" stop-color="#32150c" stop-opacity="0"/></linearGradient><radialGradient id="radial-gradient-14" cx="103.34" cy="52.52" gradientTransform="translate(-3748.29 -534.88) scale(39.75 22.38)" xlink:href="#radial-gradient"/><radialGradient id="radial-gradient-15" cx="103.34" cy="52.52" gradientTransform="translate(560.05 -39569.79) rotate(90) scale(387.48 3.6)" xlink:href="#radial-gradient-8"/><radialGradient id="radial-gradient-16" cx="103.34" cy="52.52" gradientTransform="matrix(0, 238.94, 4.35, 0, 142.62, -24225.19)" xlink:href="#radial-gradient-5"/><linearGradient id="linear-gradient-19" x1="103.34" y1="52.52" x2="104.34" y2="52.52" gradientTransform="matrix(95.51, 289.04, 311.83, -88.54, -25692.62, -24875.27)" gradientUnits="userSpaceOnUse"><stop offset="0" stop-color="#fbde00"/><stop offset="0.03" stop-color="#fbde00"/><stop offset="0.92" stop-color="#fbde00"/><stop offset="0.93" stop-color="#f4d601"/><stop offset="0.94" stop-color="#e0c004"/><stop offset="0.95" stop-color="#c09c08"/><stop offset="0.97" stop-color="#946a0e"/><stop offset="0.98" stop-color="#653515"/><stop offset="1" stop-color="#653515"/></linearGradient><linearGradient id="linear-gradient-20" x1="103.34" y1="52.52" x2="104.34" y2="52.52" gradientTransform="matrix(4.84, 43.16, 46.56, -4.49, -2185.81, -3741.06)" gradientUnits="userSpaceOnUse"><stop offset="0" stop-color="#fbde00"/><stop offset="0.3" stop-color="#fbde00"/><stop offset="0.4" stop-color="#fbde00"/><stop offset="0.92" stop-color="#fbde00"/><stop offset="1" stop-color="#fbde00"/></linearGradient><linearGradient id="linear-gradient-21" x1="103.34" y1="52.52" x2="104.34" y2="52.52" gradientTransform="matrix(50.31, -26.85, -28.97, -46.64, -2986.69, 5693.06)" gradientUnits="userSpaceOnUse"><stop offset="0" stop-color="#653515"/><stop offset="0.39" stop-color="#653515"/><stop offset="0.41" stop-color="#a7800c"/><stop offset="0.43" stop-color="#fbde00"/><stop offset="1" stop-color="#fbde00"/></linearGradient><linearGradient id="linear-gradient-22" x1="103.34" y1="52.52" x2="104.34" y2="52.52" gradientTransform="matrix(98.53, -141.34, -152.48, -91.33, -1535.23, 19884.05)" gradientUnits="userSpaceOnUse"><stop offset="0" stop-color="#653515"/><stop offset="0.13" stop-color="#653515"/><stop offset="0.33" stop-color="#a7800c"/><stop offset="0.56" stop-color="#fbde00"/><stop offset="1" stop-color="#fbde00"/></linearGradient><linearGradient id="linear-gradient-23" x1="103.34" y1="52.52" x2="104.34" y2="52.52" gradientTransform="matrix(-51.05, 167.21, 180.39, 47.32, -3505.27, -19440.43)" gradientUnits="userSpaceOnUse"><stop offset="0" stop-color="#653515"/><stop offset="0.56" stop-color="#653515"/><stop offset="0.76" stop-color="#a7800c"/><stop offset="1" stop-color="#fbde00"/></linearGradient><linearGradient id="linear-gradient-24" x1="103.34" y1="52.52" x2="104.34" y2="52.52" gradientTransform="matrix(0, 236.35, 254.99, 0, -12859.92, -24067.29)" gradientUnits="userSpaceOnUse"><stop offset="0" stop-color="#fbde00"/><stop offset="0.02" stop-color="#fbde00"/><stop offset="0.04" stop-color="#fbda02" stop-opacity="0.94"/><stop offset="0.09" stop-color="#fbcf08" stop-opacity="0.8"/><stop offset="0.17" stop-color="#faca0b" stop-opacity="0.71"/><stop offset="0.32" stop-color="#f9c013" stop-opacity="0.5"/><stop offset="0.44" stop-color="#fbcf08" stop-opacity="0.2"/><stop offset="0.5" stop-color="#faca0b" stop-opacity="0.29"/><stop offset="0.61" stop-color="#f9c013" stop-opacity="0.5"/><stop offset="0.92" stop-color="#fbcf08" stop-opacity="0.5"/><stop offset="0.95" stop-color="#fbd405" stop-opacity="0.68"/><stop offset="0.99" stop-color="#fbde00"/><stop offset="1" stop-color="#fbde00"/></linearGradient><linearGradient id="linear-gradient-25" x1="103.34" y1="52.52" x2="104.34" y2="52.52" gradientTransform="matrix(0, 212.62, 229.38, 0, -11514.97, -21589.77)" gradientUnits="userSpaceOnUse"><stop offset="0" stop-color="#32150c" stop-opacity="0"/><stop offset="0.02" stop-color="#32150c" stop-opacity="0"/><stop offset="0.14" stop-color="#32150c" stop-opacity="0.2"/><stop offset="0.34" stop-color="#32150c" stop-opacity="0.5"/><stop offset="0.63" stop-color="#32150c" stop-opacity="0.2"/><stop offset="0.86" stop-color="#32150c" stop-opacity="0.5"/><stop offset="0.99" stop-color="#32150c" stop-opacity="0"/><stop offset="1" stop-color="#32150c" stop-opacity="0"/></linearGradient><radialGradient id="radial-gradient-17" cx="103.34" cy="52.52" gradientTransform="matrix(27.82, 6.73, -7.22, 25.66, -1657.72, -1427.26)" xlink:href="#radial-gradient-3"/><radialGradient id="radial-gradient-18" cx="103.34" cy="52.52" gradientTransform="translate(-3833.77 -1796.31) scale(44.39 41.15)" xlink:href="#radial-gradient-13"/><radialGradient id="radial-gradient-19" cx="103.34" cy="52.52" gradientTransform="translate(-5373.46 -2341.72) scale(58.2 53.95)" xlink:href="#radial-gradient-13"/><linearGradient id="linear-gradient-26" x1="103.34" y1="52.52" x2="104.34" y2="52.52" gradientTransform="matrix(-36.22, -42.57, -45.93, 33.57, 6825.87, 3276.06)" gradientUnits="userSpaceOnUse"><stop offset="0" stop-color="#fbde00"/><stop offset="0.01" stop-color="#fbde00"/><stop offset="0.03" stop-color="#f4d700" stop-opacity="0.97"/><stop offset="0.06" stop-color="#e1c402" stop-opacity="0.87"/><stop offset="0.09" stop-color="#c2a503" stop-opacity="0.72"/><stop offset="0.14" stop-color="#977a06" stop-opacity="0.5"/><stop offset="0.19" stop-color="#604309" stop-opacity="0.23"/><stop offset="0.22" stop-color="#32150c" stop-opacity="0"/><stop offset="0.32" stop-color="#32150c"/><stop offset="0.7" stop-color="#32150c" stop-opacity="0.5"/><stop offset="0.88" stop-color="#32150c" stop-opacity="0"/><stop offset="1" stop-color="#32150c" stop-opacity="0"/></linearGradient><linearGradient id="linear-gradient-27" x1="103.34" y1="52.52" x2="104.34" y2="52.52" gradientTransform="matrix(166.3, 54.36, 58.64, -154.15, -19475.64, 3057.19)" gradientUnits="userSpaceOnUse"><stop offset="0" stop-color="#32150c" stop-opacity="0"/><stop offset="0.28" stop-color="#32150c"/><stop offset="0.55" stop-color="#32150c" stop-opacity="0.5"/><stop offset="0.58" stop-color="#6e5108" stop-opacity="0.65"/><stop offset="0.6" stop-color="#a08305" stop-opacity="0.77"/><stop offset="0.63" stop-color="#c7aa03" stop-opacity="0.87"/><stop offset="0.65" stop-color="#e4c701" stop-opacity="0.94"/><stop offset="0.67" stop-color="#f5d800" stop-opacity="0.98"/><stop offset="0.68" stop-color="#fbde00"/><stop offset="1" stop-color="#fbde00"/></linearGradient><linearGradient id="linear-gradient-28" x1="103.34" y1="52.52" x2="104.34" y2="52.52" gradientTransform="matrix(91.9, 0, 0, -85.18, -8925.98, 4702.55)" gradientUnits="userSpaceOnUse"><stop offset="0" stop-color="#fbde00"/><stop offset="0.01" stop-color="#fbde00"/><stop offset="0.03" stop-color="#f3d600" stop-opacity="0.98"/><stop offset="0.05" stop-color="#dec102" stop-opacity="0.93"/><stop offset="0.08" stop-color="#bc9f04" stop-opacity="0.84"/><stop offset="0.12" stop-color="#8c6f07" stop-opacity="0.72"/><stop offset="0.16" stop-color="#4f320a" stop-opacity="0.57"/><stop offset="0.17" stop-color="#32150c" stop-opacity="0.5"/><stop offset="0.42" stop-color="#32150c"/><stop offset="0.65" stop-color="#32150c"/><stop offset="0.79" stop-color="#32150c" stop-opacity="0.5"/><stop offset="0.94" stop-color="#32150c" stop-opacity="0"/><stop offset="1" stop-color="#32150c" stop-opacity="0"/></linearGradient><linearGradient id="linear-gradient-29" x1="103.34" y1="52.52" x2="104.34" y2="52.52" gradientTransform="matrix(19.31, 50.77, 54.78, -17.9, -4248.17, -3961.46)" gradientUnits="userSpaceOnUse"><stop offset="0" stop-color="#32150c"/><stop offset="0.18" stop-color="#32150c" stop-opacity="0.5"/><stop offset="0.48" stop-color="#32150c" stop-opacity="0"/><stop offset="1" stop-color="#32150c" stop-opacity="0"/></linearGradient><linearGradient id="linear-gradient-30" x1="103.34" y1="52.52" x2="104.34" y2="52.52" gradientTransform="matrix(-22.41, 59.06, 63.72, 20.77, -272.17, -6689.31)" gradientUnits="userSpaceOnUse"><stop offset="0" stop-color="#32150c"/><stop offset="0.18" stop-color="#32150c" stop-opacity="0.5"/><stop offset="0.4" stop-color="#32150c" stop-opacity="0"/><stop offset="1" stop-color="#32150c" stop-opacity="0"/></linearGradient><radialGradient id="radial-gradient-20" cx="103.34" cy="52.52" r="1" gradientTransform="translate(-3195.68 -1490.44) scale(38.19 35.4)" gradientUnits="userSpaceOnUse"><stop offset="0" stop-color="#fff" stop-opacity="0.85"/><stop offset="0.38" stop-color="#fff" stop-opacity="0.5"/><stop offset="1" stop-color="#fff" stop-opacity="0"/></radialGradient><radialGradient id="radial-gradient-21" cx="103.34" cy="52.52" r="1" gradientTransform="matrix(27.75, 3.52, -2.18, 14.76, -2149.74, -806.08)" gradientUnits="userSpaceOnUse"><stop offset="0" stop-color="#fff" stop-opacity="0.85"/><stop offset="0.62" stop-color="#fff" stop-opacity="0.5"/><stop offset="1" stop-color="#fff" stop-opacity="0"/></radialGradient><radialGradient id="radial-gradient-22" cx="103.34" cy="52.52" r="1" gradientTransform="translate(-3275.23 -433.89) scale(37.62 20.42)" gradientUnits="userSpaceOnUse"><stop offset="0" stop-color="#fff" stop-opacity="0.85"/><stop offset="0.42" stop-color="#fff" stop-opacity="0.85"/><stop offset="1" stop-color="#fff" stop-opacity="0"/></radialGradient><radialGradient id="radial-gradient-23" cx="103.34" cy="52.52" gradientTransform="translate(-5534.23 -2410.26) scale(59.74 55.37)" xlink:href="#radial-gradient-3"/><radialGradient id="radial-gradient-24" cx="103.34" cy="52.52" r="1" gradientTransform="translate(-845.6 -246.49) scale(15.23 14.12)" gradientUnits="userSpaceOnUse"><stop offset="0" stop-color="#fdfeff" stop-opacity="0.85"/><stop offset="0.07" stop-color="#fdfeff" stop-opacity="0.85"/><stop offset="0.31" stop-color="#f5ecc1" stop-opacity="0.61"/><stop offset="0.64" stop-color="#e9d46d" stop-opacity="0.28"/><stop offset="0.88" stop-color="#e2c538" stop-opacity="0.08"/><stop offset="1" stop-color="#dfbf24" stop-opacity="0"/></radialGradient><radialGradient id="radial-gradient-25" cx="103.34" cy="52.52" gradientTransform="matrix(0, 147.34, 6.5, 0, 285.33, -14741.7)" xlink:href="#radial-gradient-5"/><radialGradient id="radial-gradient-26" cx="103.34" cy="52.52" gradientTransform="matrix(0, 711.79, 4.91, 0, 368.9, -73075.97)" xlink:href="#radial-gradient-8"/></defs><path class="cls-1" d="M255.21,382.17c-.94,0-1.58,1.78-3.13,6.08l-.19.53L213.33,498.42c-.29.82-.4,1.39-.17,1.69a1.09,1.09,0,0,0,.81.38h85.35c.82,0,1.19-.19,1.37-.43s.06-.66-.13-1.15l-.17-.47L258.8,388.79c-1.84-4.7-2.63-6.62-3.59-6.62m150,250.7c-19.14,0-35.48-.28-50-.86-11.55-.4-12.79-2-12.79-2.61s.85-.92,2-1.44l.88-.39c2.78-1.55,5.58-4.29,2.71-11.89l-40.73-99.9c-.46-1.28-.55-1.24-1.93-1.24h-97c-1,0-1.07,0-1.94,2L180,588.82c-7.22,20.07-8.75,30-5.46,35.58,1.43,2.42,3.84,4,7.35,4.8a60.23,60.23,0,0,0,13,1.21c3,0,4.11.53,4.11,1,0,.22-1.16,1.4-6.28,1.4-10.37,0-19.34-.5-25.89-.86-3.47-.19-6.22-.34-7.9-.34-1.43,0-6.93.16-13.89.36-12,.36-28.52.84-35.94.84-5.9,0-7.15-1.17-7.15-1.41,0-.66,1.39-1,4.12-1a89.86,89.86,0,0,0,13-.8c17.35-2.06,25.93-15.89,35.7-40.69l97.91-248.19c4.54-12,7.64-17.53,9.76-17.53,1.67,0,4,2.86,10.2,17.14,1.5,3.52,7.49,18,15.78,38.13,22.68,54.94,64.9,157.22,84.3,202q1.51,3.46,2.86,6.57c13,29.84,15.65,36.05,32.36,41.34,6.54,2,14.73,2,19.14,2,3.1,0,4.55.32,4.55,1,0,0-.17,1.41-6.29,1.41l-6,0c-3.86,0-8.66,0-14.25,0"/><path class="cls-1" d="M388.84,626.28c-8.44-3.49-17.71-9-21.32-12.55-1.62,3.75-7.69,10.31-15.27,13.73a19.47,19.47,0,0,1-10,1.83s0,.07,0,.11c0,.8,1.3,2.41,13,2.81,29.89,1.2,60.66.8,70.19.8,5.13,0,6.3-1,6.47-1.48-16.45,0-32.14-.73-43-5.25"/><path class="cls-1" d="M171,628.14a38.77,38.77,0,0,1-13.16-12.38c-3.81,2.86-11.24,7-21.58,11.57-9.82,4.34-20,4.47-34.47,4v0c0,.41,1.29,1.61,7.36,1.61,11.7,0,45.93-1.2,49.82-1.2,4.77,0,17.77,1.2,33.8,1.2,5.2,0,6.5-1.2,6.5-1.61h0c-11.75.42-21.16.69-28.27-3.26"/><path class="cls-2" d="M427.13,630.2c-4.33,0-12.57,0-19.06-2-17.77-5.62-19.5-12.05-35.1-47.79-26.43-61-94.45-226.9-100.08-240.15-6.5-14.86-8.66-17.27-10.4-17.27h-.15l-1.56,27.13L367.52,613.74h0c3.61,3.56,12.88,9,21.32,12.54,10.89,4.52,26.58,5.23,43,5.25a.3.3,0,0,0,0-.12c0-.81-1.3-1.21-4.76-1.21"/><path class="cls-3" d="M260.78,350.12,262.34,323c-1.73.16-4.34,3.22-9.81,17.66L154.61,588.84c-10,25.3-18.63,38.55-35.52,40.56a89.64,89.64,0,0,1-13,.8c-3,0-4.27.38-4.33,1.15,14.47.45,24.65.31,34.47-4,10.34-4.57,17.77-8.71,21.58-11.57,24.44-65.31,96.86-258.62,98-260.19a35.75,35.75,0,0,1,4.95-5.45"/><path class="cls-4" d="M260.78,350.12a35.75,35.75,0,0,0-4.95,5.45l-.67,26.8c.82-.08,1.68,2,3.43,6.47l41.59,109.64c.22.6.44,1,.38,1.25l8.29,7.58-2.3,7.37c.23.14.34.44.57,1.06l40.72,100c3,8-.43,10.44-2.6,11.65-1.65.76-2.9,1.16-3,1.9a19.39,19.39,0,0,0,10-1.84c7.58-3.41,13.64-10,15.27-13.71L260.78,350.11"/><path class="cls-5" d="M213.54,498.48l38.55-109.64c1.51-4.18,2.27-6.38,3.07-6.47l.67-26.8c-1.16,1.56-73.58,194.88-98,260.19A38.77,38.77,0,0,0,171,628.14c7.11,4,16.52,3.68,28.27,3.26,0-.8-1.74-1.2-4.33-1.2a60.18,60.18,0,0,1-13-1.2c-12.13-2.81-10.83-14.86-1.73-40.16l26.42-72.29c.53-1.2.73-1.68,1-1.88l-2.29-7.36,8.07-7.38c-.22-.21-.13-.65.16-1.45"/><path class="cls-1" d="M205.3,507.31l2.3,7.36a1.2,1.2,0,0,1,.74-.13h97a2.35,2.35,0,0,1,1.17.14l2.3-7.37H205.3"/><path class="cls-2" d="M300.56,499.73c-.05.25-.37.35-1.24.35H214a.85.85,0,0,1-.6-.16l-8.07,7.39H308.85l-8.29-7.58"/><path class="cls-6" d="M269.82,372.44l-13.7,10.72a42.81,42.81,0,0,1,2.47,5.68l41.6,109.64a3.69,3.69,0,0,1,.38,1.25l8.28,7.58-2.3,7.37c.24.14.35.44.57,1.06l40.73,100c0,.13.08.25.13.37L366.39,611,269.82,372.44"/><path class="cls-7" d="M373,580.4c-26.43-61-94.45-226.9-100.08-240.15-6.5-14.86-8.66-17.27-10.4-17.27h-.15l-1.56,27.13L365.35,608.4l17.74-5c-2.76-5.91-5.94-13.38-10.12-23"/><path class="cls-8" d="M159.39,611.53l14.07.9c.86-6,3.2-13.83,6.72-23.59l26.42-72.29c.52-1.21.73-1.69,1-1.88l-2.3-7.36,8.08-7.38c-.22-.22-.13-.66.16-1.45L252.1,388.84c1.5-4.18,2.26-6.38,3.06-6.47l.67-26.8c-1.14,1.53-70.6,186.94-96.44,256"/><path class="cls-9" d="M248.89,349.88l-94.28,239c-2.45,6.22-4.83,11.72-7.26,16.5l13.21,3.06c26.7-71.31,94.15-251.32,95.27-252.83.64-.86,1.28-1.64,1.87-2.32l-8.81-3.38"/><path class="cls-10" d="M388.84,626.28c-8.44-3.49-17.71-9-21.32-12.55-1.62,3.75-7.69,10.31-15.27,13.73a19.47,19.47,0,0,1-10,1.83s0,.07,0,.11c0,.8,1.3,2.41,13,2.81,29.89,1.2,60.66.8,70.19.8,5.13,0,6.3-1,6.47-1.48-16.45,0-32.14-.73-43-5.25"/><path class="cls-11" d="M300.56,499.73c-.05.25-.37.35-1.24.35H214a.85.85,0,0,1-.6-.16l-8.07,7.39H308.85l-8.29-7.58"/><path class="cls-12" d="M260.78,350.12a35.75,35.75,0,0,0-4.95,5.45l-.67,26.8c.3,0,.6.23,1,.79l13.71-10.72-9-22.32"/><path class="cls-13" d="M427.13,630.2c-4.33,0-12.57,0-19.06-2-13-4.12-17.43-8.67-25-24.84l-17.74,5,2.17,5.34h0c3.61,3.57,12.88,9.06,21.32,12.55,10.89,4.52,26.58,5.23,43,5.25a.32.32,0,0,0,0-.13c0-.8-1.3-1.2-4.76-1.2"/><path class="cls-14" d="M260.78,350.12,262.34,323c-1.73.16-4.34,3.22-9.81,17.66l-3.64,9.23,8.81,3.37a33.11,33.11,0,0,1,3.08-3.13"/><path class="cls-15" d="M157.81,615.75A38.59,38.59,0,0,0,171,628.14c7.11,4,16.52,3.68,28.27,3.26,0-.8-1.74-1.2-4.34-1.2a59.66,59.66,0,0,1-13-1.21c-7.45-1.72-9.83-6.94-8.46-16.56l-14.06-.91c-.55,1.46-1.08,2.88-1.58,4.23"/><path class="cls-16" d="M171,628.14a38.77,38.77,0,0,1-13.16-12.38c-3.81,2.86-11.24,7-21.58,11.57-9.82,4.34-20,4.47-34.47,4v0c0,.41,1.29,1.61,7.36,1.61,11.7,0,45.93-1.2,49.82-1.2,4.77,0,17.77,1.2,33.8,1.2,5.2,0,6.5-1.2,6.5-1.61h0c-11.75.42-21.16.69-28.27-3.26"/><path class="cls-17" d="M205.3,507.31l2.3,7.36a1.2,1.2,0,0,1,.74-.13h97a2.35,2.35,0,0,1,1.17.14l2.3-7.37H205.3"/><path class="cls-18" d="M300.56,499.73c-.05.25-.37.35-1.24.35H214a.85.85,0,0,1-.6-.16l-8.07,7.39H308.85l-8.29-7.58"/><path class="cls-19" d="M427.13,630.2c-4.33,0-12.57,0-19.06-2-17.77-5.62-19.5-12.05-35.1-47.79-26.43-61-94.45-226.9-100.08-240.15-6.5-14.86-8.66-17.27-10.4-17.27h-.15l-1.56,27.13L367.52,613.74h0c3.61,3.56,12.88,9,21.32,12.54,10.89,4.52,26.58,5.23,43,5.25a.3.3,0,0,0,0-.12c0-.81-1.3-1.21-4.76-1.21"/><path class="cls-20" d="M213.54,498.48l38.55-109.64c1.51-4.18,2.27-6.38,3.07-6.47l.67-26.8c-1.16,1.56-73.58,194.88-98,260.19A38.77,38.77,0,0,0,171,628.14c7.11,4,16.52,3.68,28.27,3.26,0-.8-1.74-1.2-4.33-1.2a60.18,60.18,0,0,1-13-1.2c-12.13-2.81-10.83-14.86-1.73-40.16l26.42-72.29c.53-1.2.73-1.68,1-1.88l-2.29-7.36,8.07-7.38c-.22-.21-.13-.65.16-1.45"/><path class="cls-21" d="M205.3,507.31l2.3,7.36a1.2,1.2,0,0,1,.74-.13h97a2.35,2.35,0,0,1,1.17.14l2.3-7.37H205.3"/><path class="cls-22" d="M260.78,350.12a35.75,35.75,0,0,0-4.95,5.45l-.67,26.8c.82-.08,1.68,2,3.43,6.47l41.59,109.64c.22.6.44,1,.38,1.25l8.29,7.58-2.3,7.37c.23.14.34.44.57,1.06l40.72,100c3,8-.43,10.44-2.6,11.65-1.65.76-2.9,1.16-3,1.9a19.39,19.39,0,0,0,10-1.84c7.58-3.41,13.64-10,15.27-13.71L260.78,350.11"/><path class="cls-23" d="M260.78,350.12,262.34,323c-1.73.16-4.34,3.22-9.81,17.66L154.61,588.84c-10,25.3-18.63,38.55-35.52,40.56a89.64,89.64,0,0,1-13,.8c-3,0-4.27.38-4.33,1.15,14.47.45,24.65.31,34.47-4,10.34-4.57,17.77-8.71,21.58-11.57,24.44-65.31,96.86-258.62,98-260.19a35.75,35.75,0,0,1,4.95-5.45"/><path class="cls-1" d="M421.4,328.34c-8.43,0-24,1.28-27.35,3-4.74,2.16-5.15,3.1-5.15,6.93,0,6.62-.18,17.91-.26,31-.12,18.47-.37,41.46-.37,60.54v52.3c0,46.63.54,83.83.94,91.54.25,6.34,1.39,27.39,4.71,32.16,10.23,15,43.59,17,71.5,17,38.71,0,75.16-14.32,100-39.29,10.42-10.28,19.08-25.5,25-44a189,189,0,0,0,8.61-57c0-23.92-4.6-46.3-13.7-66.52a143,143,0,0,0-26.62-39.92A140.46,140.46,0,0,0,494,336.52c-24.89-7.21-50.66-8.18-72.57-8.18m42.78,308.32c-14.75,0-34.36-.86-58.29-2.54-9.23-.63-17.5-1.27-23.54-1.73s-10.23-.8-11.29-.8c-.61,0-3.3.11-7,.26-9.41.38-25.14,1-34.08,1-6.18,0-6.5-1.23-6.5-1.48,0-.51.83-1,3.15-1,3.73,0,8.83,0,12.63-.85,8.84-1.78,10.67-15.86,12.22-27.17,2.1-17.73,2-50.31,2-91.55V436.52c0-65.76.1-77.61-.74-91.11-.72-12.36-3.45-25.31-18.58-27.61a74.7,74.7,0,0,0-11.75-.85c-4.33,0-5.23-.57-5.23-1.05,0-.69,1.71-1.48,6.51-1.48,18.16,0,31.4.61,39.31,1,3.71.17,6.39.29,8.09.29s5.16-.12,10.14-.28c10.88-.37,29.1-1,46.49-1l8,0c3,0,6.22,0,9.52,0,22.41,0,48.87.84,75.17,7.09A173.27,173.27,0,0,1,560,335.86a136.78,136.78,0,0,1,35.79,26.58c18.53,19.38,40.63,53.68,40.63,107a179.85,179.85,0,0,1-13.83,70,164.3,164.3,0,0,1-31.42,48.81,145.73,145.73,0,0,1-43.51,31.33c-24,11.35-52.06,17.11-83.43,17.11"/><path class="cls-2" d="M371.07,584.14h18.8c0-.13-.05-.69-.06-.84H371.07v.84"/><path class="cls-24" d="M595.9,362.29C546,310.41,469.22,314.21,427.7,314.21c-25.17,0-51.6,1.26-56.63,1.26-5.45,0-21-1.26-47.4-1.26-4.77,0-6.53.76-6.69,1.55,15.63,0,24.59.78,34.66,5.69a79.72,79.72,0,0,1,19.43,13c3.91-3.45,11.4-8.12,16.29-9.77,8.72-2.93,16.93-3,32.21-3,33.11,0,198-11.14,198,153.83,0,159.54-149.29,154.34-154.88,154.34-3.49,0-72.7.56-91.58-16.73-8.67,8.15-13.86,12.31-22.81,16.15-5.89,2.53-14.1,2.54-24.86,2.54.39.54,1.78,1.27,6.56,1.27,12.58,0,39-1.27,41.11-1.27s16.36,1.27,34.81,2.53c18,1.27,40.27,2.54,58.31,2.54,71.31,0,109.06-29.53,127.09-48.51,23.49-24.88,45.3-65.8,45.3-118.94,0-50.19-19.71-85.2-40.68-107.13"/><path class="cls-25" d="M351.64,321.45c-10.07-4.91-19-5.66-34.66-5.68a.51.51,0,0,0,0,.13c0,.84,1.68,1.26,5.45,1.26a74,74,0,0,1,11.75.85c13.84,2.1,17.61,13.07,18.45,27.41.84,13.5.84,25.31.84,91.1v74.24c0,40.49,0,73.81-2.1,91.52-1.67,12.23-3.77,25.31-12.16,27-3.77.84-8.81.84-12.58.84-2.94,0-3.36.84-3.36,1.26a.74.74,0,0,0,.15.43c10.76,0,19,0,24.86-2.55,8.95-3.84,14.14-8,22.81-16.14V334.45a79.8,79.8,0,0,0-19.43-13"/><path class="cls-26" d="M478.45,323.9c-26.29-3.27-48.75-2.23-58.88-2.23-15,0-23.17.08-31.7,2.85l5.88,7.16.39-.18c3.36-1.68,18.88-2.95,27.27-2.95,19.46,0,38.6.9,57,4.47,28.87,5.58,56.05,17.71,80.11,43.19,17.2,18.14,40.27,52.72,40.27,106.29,0,38.8-11.75,79.29-33.56,100.8-24.75,24.89-60.82,39.23-99.83,39.23-52.43,0-65.85-8.86-71.31-16.87-2.1-3-3.34-12.78-4-21.94h-19v29.4c18.87,17.28,88.08,16.72,91.58,16.72,5.59,0,154.88,5.2,154.88-154.33,0-114.51-79.42-144.17-139.09-151.61"/><path class="cls-27" d="M389,358.49c.05-8.45.09-15.52.09-20.24,0-3.69.39-4.59,4.63-6.57l-5.87-7.16-.51.16c-4.89,1.65-12.39,6.32-16.29,9.77V583.72h19c-.27-3.61-.45-7.14-.57-10.12-.42-8-.84-46.82-.84-91.52v-52.3c0-22.91.21-51.06.33-71.28"/><path class="cls-28" d="M351.84,338.08a71.26,71.26,0,0,1,.77,7.34c.84,13.49.84,25.3.84,91.1v74.23c0,40.49,0,73.81-2.1,91.53-.16,1.23-.34,2.47-.52,3.7h20.24V338.08H351.84"/><path class="cls-29" d="M465.45,622.53c-52.43,0-65.86-8.86-71.31-16.88-2.11-3-3.35-12.77-4-21.93-.27-3.61-.46-7.14-.57-10.12-.42-8-.84-46.82-.84-91.53v-52.3c0-22.9.21-51,.33-71.28.05-8.45.09-15.52.09-20.24,0-.44,0-.84,0-1.2l-8.56-9.17a60.8,60.8,0,0,0-9.5,6.57V613.12c18.88,17.28,88.09,16.72,91.58,16.72a185.18,185.18,0,0,0,45-5.11v-8.05a153.19,153.19,0,0,1-42.2,5.84"/><path class="cls-30" d="M371.07,334.45a79.92,79.92,0,0,0-19.43-13c-10.07-4.91-19-5.66-34.66-5.69a.68.68,0,0,0,0,.14c0,.84,1.68,1.26,5.45,1.26a75.46,75.46,0,0,1,11.75.84c11.35,1.73,15.93,9.43,17.67,20.05h19.24v-3.6"/><path class="cls-31" d="M478.45,323.9c-3.87-.48-7.65-.86-11.32-1.18v8.44c3.8.52,7.57,1.13,11.32,1.86,28.88,5.58,56.06,17.71,80.12,43.19a144.59,144.59,0,0,1,30.19,48.62h22.55c-19.82-73.14-83.19-94.74-132.86-100.92"/><path class="cls-32" d="M636.59,469.42c0-50.19-19.72-85.2-40.69-107.13-23.14-24.05-52-36.13-80.54-42.17V331.4c51,15,102.17,52.22,102.17,144.11,0,1,0,1.93,0,2.89h18.87c.13-3,.21-5.95.21-9"/><path class="cls-33" d="M371.07,315.47c-5.45,0-21-1.26-47.4-1.26-4.77,0-6.53.76-6.69,1.55,15.63,0,24.59.78,34.66,5.69a79.72,79.72,0,0,1,19.43,13c3.91-3.45,11.4-8.12,16.29-9.77,7.74-2.61,15.09-3,27.33-3v-7.36c-20.63.29-39.45,1.16-43.62,1.16"/><path class="cls-34" d="M371.07,613.12c-8.67,8.14-13.86,12.3-22.81,16.14-5.89,2.53-14.1,2.54-24.86,2.54.39.54,1.78,1.27,6.56,1.27,12.58,0,39-1.27,41.11-1.27s16.36,1.27,34.81,2.54c17.18,1.2,38.17,2.4,55.71,2.52v-7c-9.47,0-72.63-.34-90.52-16.73"/><path class="cls-35" d="M351.64,321.45c-10.07-4.91-19-5.66-34.66-5.68a.51.51,0,0,0,0,.13c0,.84,1.68,1.26,5.45,1.26a74,74,0,0,1,11.75.85c13.84,2.1,17.61,13.07,18.45,27.41.84,13.5.84,25.31.84,91.1v74.24c0,40.49,0,73.81-2.1,91.52-1.67,12.23-3.77,25.31-12.16,27-3.77.84-8.81.84-12.58.84-2.94,0-3.36.84-3.36,1.26a.74.74,0,0,0,.15.43c10.76,0,19,0,24.86-2.55,8.95-3.84,14.14-8,22.81-16.14V334.45a79.8,79.8,0,0,0-19.43-13"/><path class="cls-36" d="M390.1,583.72c-.27-3.61-.45-7.14-.57-10.12-.42-8-.84-46.82-.84-91.53v-52.3c0-22.9.21-51,.33-71.28.05-8.45.09-15.52.09-20.24a9.64,9.64,0,0,1,.33-3.12L378.67,329a57.69,57.69,0,0,0-7.6,5.45V605.14h22.76c-1.92-3.5-3.07-12.72-3.73-21.42"/><path class="cls-1" d="M675.56,340.85c-13.25,0-24.87,1.25-29.09,2.42l-.3.07c-2.06.76-3.53,1.27-3.53,4.14V482c0,1.65,1,2.52,2.37,3.38,6.5,3.54,23.92,5.66,46.53,5.66,8.9,0,22-.8,32.64-7.67,16.61-10.56,26.54-33.74,26.54-62,0-24.62-7-45.06-20.14-59.12s-32.14-21.4-55-21.4m181.53,291c-23.48,0-34.72-1.95-46.26-7.71-17.16-8.5-31.37-26-52.9-52.28-1.78-2.19-3.62-4.46-5.52-6.77-10-12.12-20.44-25.48-29.67-37.26-7.44-9.49-13.87-17.7-18-22.6-1.2-1.48-2.13-2.09-3.21-2.09l-57.29-.8c-1.48,0-1.63.15-1.63,1.8v11.25c0,39.27.11,70.29,2.28,87.17,1.15,10.28,4.22,24.16,17.13,25.88a83.52,83.52,0,0,0,12.88.86c1.35,0,2.61,0,3.82,0l2.88,0c2.39,0,3.25.52,3.25,1,0,.24-.45,1.41-9.31,1.41-15.72,0-34.5-.69-43.53-1-2.95-.11-4.9-.18-5.43-.18s-3.42.1-7.27.24c-9.71.36-26,1-35.19,1-6.39,0-6.72-1.17-6.72-1.41,0-.48.86-1,3.25-1,3.85,0,9.12,0,13.05-.81,9.13-1.69,11-15.1,12.62-25.87,2.17-16.88,2.06-47.9,2.06-87.17V444.67c0-62.62.11-73.9-.76-86.76-.74-11.76-3.56-24.09-19.19-26.29a85.13,85.13,0,0,0-12.13-.8c-4.48,0-5.41-.55-5.41-1,0-.65,1.77-1.4,6.73-1.4,15.4,0,32.76.64,42.08,1,3.64.13,6,.22,6.88.22,1.78,0,7.46-.16,14.64-.38,11.85-.34,28.07-.82,36.48-.82,26,0,55.78,2.09,79.16,17.63,11.07,7.39,29.81,27.17,29.81,54.45,0,32.66-16.64,62.09-52.36,92.62a.19.19,0,0,0,0,.27L747,508.52c29.69,35.32,55.33,65.82,77.4,87.68,20.14,19.71,37,29.81,53,31.79a111.78,111.78,0,0,0,16.92,1.21c3,0,3.69.9,3.69,1.1,0,.69-1.21,1.51-10.19,1.51H857.09"/><path class="cls-1" d="M645.08,625.92a67.7,67.7,0,0,1-18.48-13.11,82.9,82.9,0,0,1-17.52,12.82c-9.31,5.13-16.17,4.69-31.86,4.69.11.48,1,1.49,6.92,1.49,13,0,40.29-1.21,42.46-1.21s28.16,1.21,49,1.21c9.09,0,9.53-1.21,9.53-1.61-23,0-30.1.49-40-4.28"/><path class="cls-37" d="M606.78,334.14c-10.4-4.67-19.9-4.47-36-4.46a.59.59,0,0,0,0,.13c0,.8,1.73,1.2,5.63,1.2a82.59,82.59,0,0,1,12.13.81c14.3,2,18.2,12.45,19.06,26.1.87,12.85.87,24.1.87,86.74v70.68c0,38.56,0,70.28-2.16,87.15-1.74,11.65-3.9,24.1-12.57,25.7-3.9.8-9.1.8-13,.8-3,0-3.46.81-3.46,1.21a.57.57,0,0,0,0,.12c15.69,0,22.55.44,31.86-4.69a83.25,83.25,0,0,0,17.52-12.82V347.48c-3.89-3.34-10.15-9-19.82-13.34"/><path class="cls-38" d="M812,606.31c-29-28.52-73.6-83.14-90.12-104.56-3.88,0-12.69-3.55-19.66-4.47-6.57-.87-38.25-.61-64-2.55l4.86,8.09c.13-.32.44-.32,1.2-.32l57.19.8c.87,0,1.73.4,3,2,9.1,10.84,29.46,37.75,47.66,59.83,24.7,30.12,39.86,49.8,58.49,59,11.26,5.62,22.1,7.63,46.36,7.63h30.76c9.33,0,10.36-.77,10.39-1.56-19,0-58.49,3.29-86.21-23.94"/><path class="cls-39" d="M681.62,629c-4.76,0-11.7.4-19.5-.81-12.13-1.6-15.59-14.05-16.89-25.7-2.17-16.86-2.17-48.59-2.17-87.14V504.1a3.84,3.84,0,0,1,.1-1.28l-4.86-8.09,4.78-12.45a2.28,2.28,0,0,1,0-.27V347.48a3.81,3.81,0,0,1,.66-2.48l-3.84-7.22c-6.56,3.24-10,6.1-13.28,9.7V612.81a67.54,67.54,0,0,0,18.48,13.11c9.9,4.77,17,4.28,40,4.28,0-.4-.43-1.2-3.46-1.2"/><path class="cls-40" d="M677,334.63c-13,0-30.35-.2-37.11,3.15l3.84,7.22a6.18,6.18,0,0,1,2.8-1.54c4.34-1.2,16-2.41,29-2.41,46.36,0,75,30.12,75,80.32,0,30.52-11.26,52.21-26.42,61.85-10,6.42-22.1,7.63-32.5,7.63-19.06,0-39-1.61-46.36-5.62-1.22-.76-2.05-1.52-2.14-3l-4.79,12.45c25.71,1.94,57.39,1.68,64,2.54,7,.92,15.78,4.48,19.65,4.48.8,0,2.93-6.76,4.58-9.09,12.47-11.73,42.32-40.93,42.32-86.85,0-40.56-31.87-71.18-91.82-71.18"/><path class="cls-2" d="M894.35,629a111.49,111.49,0,0,1-16.9-1.21c-13-1.6-29.46-8.83-52.86-31.72-25.13-24.9-54.59-60.64-90.11-102.81l-8-.6c-1.63,2.3-3.78,9.09-4.58,9.09,16.52,21.42,61.09,76,90.12,104.56,27.72,27.23,67.16,23.94,86.22,23.94v0c0-.4-.87-1.2-3.9-1.2"/><path class="cls-41" d="M757,345.87c-23-15.26-52-17.67-79.29-17.67-13.43,0-46.36,1.21-51.12,1.21-3,0-27.73-1.21-49-1.21-4.93,0-6.74.73-6.91,1.48,16.15,0,25.66-.21,36,4.46,9.67,4.35,15.93,10,19.82,13.34,3.24-3.6,6.72-6.45,13.28-9.7,6.75-3.34,24.11-3.15,37.11-3.15,59.94,0,91.82,30.62,91.82,71.18,0,45.92-29.7,74.95-42.32,86.85l8,.6c39-33.33,52.42-63.05,52.42-92.77,0-27.71-19.06-47.39-29.89-54.61"/><path class="cls-42" d="M607.36,355.91c.07.41.13,1.37.17,2.11.87,12.85.87,24,.87,86.65v70.68c0,34,0,62.64-1.48,80.72h19.67V355.91H607.36"/><path class="cls-43" d="M643.06,504.1a3.84,3.84,0,0,1,.1-1.28l-4.86-8.09,4.78-12.45a2.28,2.28,0,0,1,0-.27V376.8H626.6V598.48h18.18c-1.72-17.62-1.72-47.45-1.72-83.13V504.1"/><path class="cls-44" d="M812,606.31c-4.57-4.49-9.53-9.63-14.7-15.18l-14.1,10.79c9.41,10.13,18,17.55,27.5,22.26,11.26,5.62,22.09,7.63,46.36,7.63h30.76c9.33,0,10.35-.77,10.39-1.56-19,0-58.49,3.28-86.21-23.94"/><path class="cls-45" d="M786.9,400.49c0-27.71-19.06-47.39-29.89-54.62-17.36-11.53-38.19-15.72-59.1-17.08V336c46.41,6.35,70.9,34.26,70.9,69.81,0,1.72,0,3.41-.13,5.08l17.82-1.68c.27-2.91.4-5.81.4-8.72"/><path class="cls-46" d="M691.59,490.85c-19.07,0-39-1.61-46.36-5.62-1.22-.76-2.05-1.52-2.15-3l-4.78,12.45c25.7,1.94,57.38,1.68,64,2.54l.62.1.75-7.22a94.6,94.6,0,0,1-12,.7"/><path class="cls-47" d="M681.62,629c-4.76,0-11.7.4-19.5-.81-12.13-1.6-15.59-14.05-16.89-25.7-.59-4.55-1-10.2-1.32-16.76l-17.31,4.85v22.23a67.7,67.7,0,0,0,18.48,13.11c9.91,4.76,17,4.28,40,4.28,0-.4-.44-1.21-3.47-1.21"/><path class="cls-48" d="M894.35,629a111.49,111.49,0,0,1-16.9-1.21c-13-1.6-29.46-8.83-52.86-31.72-13.44-13.32-28.13-29.75-44.32-48.6l-10.94,12.17c14.79,17.24,30.19,34.38,42.7,46.67,27.72,27.23,67.16,23.94,86.22,23.94v0c0-.4-.87-1.2-3.9-1.2"/><path class="cls-49" d="M626.6,329.41c-3,0-27.73-1.21-49-1.21-4.93,0-6.74.73-6.91,1.48,16.15,0,25.66-.21,36,4.46,9.67,4.35,15.93,10,19.82,13.34,3.24-3.6,6.72-6.45,13.28-9.7,4.21-2.09,12.55-2.8,21.38-3l1.36-6.31c-14.78.35-32.61,1-36,1"/><path class="cls-50" d="M637.13,339.22a37.64,37.64,0,0,0-10.53,8.26v52.25l16.46-5.36V348.05l-5.93-8.83"/><path class="cls-51" d="M734.48,493.26l-8-.6c-1.63,2.3-3.78,9.09-4.58,9.09,9.4,12.19,27.88,35.13,47.42,57.89l10.94-12.17c-14.07-16.39-29.28-34.61-45.79-54.21"/><path class="cls-52" d="M768.81,405.81c0-35.45-24.36-63.31-70.53-69.76v7.76c30.21,7.81,49.08,31.95,51.86,68.05h18.48c.11-2,.19-4,.19-6.05"/><path class="cls-53" d="M626.6,347.48c-3.89-3.34-10.15-9-19.82-13.34-10.39-4.67-19.9-4.47-36-4.46a.59.59,0,0,0,0,.13c0,.8,1.73,1.2,5.63,1.2a82.59,82.59,0,0,1,12.13.81c13.5,1.89,17.73,11.31,18.89,23.85H626.6v-8.19"/><path class="cls-54" d="M645.08,625.92a67.7,67.7,0,0,1-18.48-13.11,82.9,82.9,0,0,1-17.52,12.82c-9.31,5.13-16.17,4.69-31.86,4.69.11.48,1,1.49,6.92,1.49,13,0,40.29-1.21,42.46-1.21s28.16,1.21,49,1.21c9.09,0,9.53-1.21,9.53-1.61-23,0-30.1.49-40-4.28"/><path class="cls-55" d="M638.3,494.73l4.86,8.09c.13-.32.44-.32,1.2-.32l57.19.8h0l.43-6.05c-7-.84-38.29-.6-63.72-2.52"/><path class="cls-56" d="M726.49,492.66l8,.6a233.35,233.35,0,0,0,18.3-17.33l-7.49-3.7a167.35,167.35,0,0,1-18.8,20.43"/><path class="cls-57" d="M681.62,629c-4.76,0-11.7.4-19.5-.81-12.13-1.6-15.59-14.05-16.89-25.7-2.17-16.86-2.17-48.59-2.17-87.14V504.1a3.84,3.84,0,0,1,.1-1.28l-4.86-8.09,4.78-12.45a2.28,2.28,0,0,1,0-.27V347.48a3.81,3.81,0,0,1,.66-2.48l-3.84-7.22c-6.56,3.24-10,6.1-13.28,9.7V612.81a67.54,67.54,0,0,0,18.48,13.11c9.9,4.77,17,4.28,40,4.28,0-.4-.43-1.2-3.46-1.2"/><path class="cls-58" d="M606.78,334.14c-10.4-4.67-19.9-4.47-36-4.46a.59.59,0,0,0,0,.13c0,.8,1.73,1.2,5.63,1.2a82.59,82.59,0,0,1,12.13.81c14.3,2,18.2,12.45,19.06,26.1.87,12.85.87,24.1.87,86.74v70.68c0,38.56,0,70.28-2.16,87.15-1.74,11.65-3.9,24.1-12.57,25.7-3.9.8-9.1.8-13,.8-3,0-3.46.81-3.46,1.21a.57.57,0,0,0,0,.12c15.69,0,22.55.44,31.86-4.69a83.25,83.25,0,0,0,17.52-12.82V347.48c-3.89-3.34-10.15-9-19.82-13.34"/></svg>