<?xml version="1.0" standalone="no"?>
<!DOCTYPE svg PUBLIC "-//W3C//DTD SVG 20010904//EN"
 "http://www.w3.org/TR/2001/REC-SVG-20010904/DTD/svg10.dtd">
<svg version="1.0" xmlns="http://www.w3.org/2000/svg"
 width="4168.000000pt" height="4168.000000pt" viewBox="0 0 4168.000000 4168.000000"
 preserveAspectRatio="xMidYMid meet">
<metadata>
Created by potrace 1.14, written by Peter Selinger 2001-2017
</metadata>
<g transform="translate(0.000000,4168.000000) scale(0.100000,-0.100000)"
fill="#000000" stroke="none">
<path d="M13326 28570 c-68 -12 -104 -29 -111 -51 -15 -46 26 -60 190 -65 179
-5 345 -13 375 -19 14 -2 46 -7 73 -9 164 -17 331 -73 440 -147 191 -130 333
-409 372 -728 4 -30 8 -61 10 -71 2 -9 6 -56 10 -106 3 -49 8 -107 10 -129 2
-22 7 -115 10 -205 4 -91 9 -208 12 -260 9 -188 13 -7365 3 -7345 -5 11 -30
70 -55 130 -25 61 -56 135 -69 165 -13 30 -70 165 -126 300 -56 135 -108 259
-115 276 -24 51 -672 1612 -1059 2547 -75 180 -196 472 -270 650 -73 177 -170
412 -216 522 -45 110 -88 214 -95 230 -7 17 -61 147 -120 290 -59 143 -113
274 -120 290 -7 17 -82 197 -165 400 -234 568 -341 827 -355 860 -7 17 -29 68
-48 115 -38 92 -182 442 -355 860 -60 146 -119 286 -131 312 -11 26 -21 49
-21 53 0 13 -137 312 -206 448 -83 166 -129 240 -181 292 -90 90 -178 9 -321
-295 -49 -104 -77 -173 -247 -605 -47 -121 -92 -233 -99 -250 -8 -16 -114
-284 -236 -595 -122 -311 -265 -673 -317 -805 -52 -132 -110 -280 -129 -330
-19 -49 -39 -99 -44 -110 -9 -19 -57 -142 -236 -600 -41 -104 -79 -199 -84
-210 -5 -11 -21 -51 -35 -90 -15 -38 -30 -79 -35 -90 -5 -11 -28 -67 -50 -125
-22 -58 -45 -114 -50 -125 -5 -11 -50 -126 -100 -255 -50 -129 -96 -244 -100
-255 -11 -23 -174 -438 -266 -675 -36 -91 -69 -174 -74 -185 -5 -11 -23 -58
-41 -105 -17 -47 -39 -103 -49 -125 -9 -22 -32 -78 -50 -125 -18 -47 -38 -98
-45 -115 -7 -16 -57 -142 -110 -280 -54 -137 -103 -263 -111 -280 -7 -16 -56
-140 -109 -275 -52 -135 -99 -254 -104 -265 -5 -11 -51 -126 -101 -255 -51
-129 -134 -341 -185 -470 -153 -386 -287 -727 -410 -1040 -64 -162 -120 -305
-125 -317 -15 -35 -25 -61 -63 -158 -38 -98 -232 -589 -318 -805 -30 -74 -54
-137 -55 -140 0 -3 -5 -16 -11 -30 -6 -14 -31 -77 -56 -140 -255 -650 -362
-907 -475 -1139 -212 -437 -432 -719 -687 -883 -177 -114 -355 -170 -615 -194
-36 -3 -76 -7 -90 -10 -14 -2 -110 -6 -215 -9 -252 -7 -285 -11 -308 -34 -23
-23 -16 -37 28 -55 72 -30 160 -35 545 -31 418 5 481 7 1255 32 299 10 732 10
890 0 128 -8 177 -10 425 -22 234 -11 715 -14 775 -4 69 11 130 39 130 60 0 8
-16 22 -35 31 -27 13 -77 18 -230 22 -107 3 -206 8 -220 10 -14 3 -47 7 -75
11 -333 41 -472 148 -520 400 -6 34 -7 209 -1 240 2 11 7 46 11 79 30 252 131
579 415 1351 51 138 111 304 135 370 68 191 155 428 165 450 5 11 115 313 246
670 316 868 301 826 344 945 66 184 101 269 113 277 15 9 4090 11 4115 2 11
-4 46 -79 101 -215 47 -115 92 -227 101 -249 10 -22 27 -65 39 -95 12 -30 26
-64 31 -75 5 -11 35 -83 66 -160 121 -303 206 -511 219 -540 13 -30 54 -131
242 -595 52 -129 101 -248 108 -265 8 -16 28 -66 45 -110 18 -44 42 -105 55
-135 13 -30 32 -77 43 -105 11 -27 35 -88 55 -135 19 -47 74 -182 122 -300 48
-118 102 -251 120 -295 18 -44 115 -282 216 -530 119 -292 183 -462 183 -485
-1 -44 -51 -174 -101 -259 -21 -36 -62 -88 -90 -117 -73 -71 -140 -101 -268
-118 -110 -14 -156 -17 -331 -20 -188 -4 -237 -12 -248 -42 -13 -35 18 -58 99
-74 52 -11 716 -6 1010 7 199 9 437 9 760 -1 138 -3 387 -9 555 -11 168 -3
321 -7 340 -10 19 -2 82 -7 140 -10 58 -3 119 -8 136 -10 17 -2 75 -7 130 -10
54 -4 117 -8 139 -10 22 -1 85 -6 140 -9 55 -4 123 -8 150 -11 28 -2 100 -7
160 -10 61 -4 133 -8 160 -11 28 -2 97 -6 155 -9 58 -3 139 -7 180 -10 41 -3
113 -7 160 -10 196 -10 351 -17 435 -20 50 -2 180 -7 290 -11 409 -16 1256 -9
1445 11 19 2 76 7 125 10 50 3 101 8 115 10 14 2 54 7 90 10 36 3 76 8 90 10
14 2 54 7 90 10 36 4 72 8 80 10 8 2 35 7 60 10 52 7 286 44 315 50 11 2 67
13 125 25 58 11 116 23 130 26 14 3 45 10 70 15 25 6 52 12 60 14 8 2 71 17
140 35 881 222 1670 592 2355 1105 108 81 336 269 424 350 66 60 327 321 394
393 150 162 411 495 552 702 31 47 59 87 62 90 3 3 2 -99 -2 -225 -11 -434
-17 -565 -40 -885 -3 -36 -7 -100 -10 -143 -3 -42 -7 -92 -10 -110 -18 -136
-36 -256 -40 -277 -3 -14 -8 -45 -11 -70 -3 -25 -8 -48 -10 -51 -2 -4 -6 -24
-10 -45 -9 -64 -43 -193 -76 -294 -69 -210 -163 -339 -293 -401 -60 -28 -78
-33 -165 -45 -24 -3 -56 -8 -70 -10 -14 -2 -124 -6 -245 -9 -245 -5 -265 -8
-291 -36 -17 -19 -17 -20 2 -40 20 -20 34 -24 114 -39 46 -9 646 -5 935 5 165
6 225 8 580 22 268 10 581 10 860 0 121 -5 283 -10 360 -13 77 -2 221 -6 320
-9 334 -10 1069 -13 1150 -4 147 16 207 57 137 93 -33 17 -50 18 -342 17 -274
-1 -370 4 -555 30 -321 44 -515 223 -635 587 -22 67 -42 136 -45 154 -4 18
-10 52 -16 76 -9 40 -32 201 -44 302 -3 25 -7 61 -10 80 -2 19 -7 69 -10 110
-3 41 -8 95 -10 120 -15 176 -31 552 -41 945 -2 94 -7 772 -10 1509 -6 1130
-4 1340 7 1347 13 8 161 7 964 -6 171 -2 537 -7 815 -11 655 -8 671 -8 696
-21 19 -11 62 -55 124 -129 14 -16 112 -139 219 -274 107 -135 218 -274 246
-310 29 -36 110 -139 181 -230 71 -91 134 -172 141 -180 7 -8 99 -125 204
-260 215 -274 610 -770 751 -943 51 -62 107 -131 125 -153 87 -107 468 -572
486 -594 12 -14 60 -73 107 -130 46 -58 87 -107 90 -110 3 -3 48 -57 100 -120
52 -63 105 -126 116 -140 12 -14 41 -47 64 -75 23 -27 54 -63 68 -80 15 -16
57 -64 92 -105 36 -41 78 -89 95 -107 16 -17 59 -64 95 -105 77 -86 377 -389
470 -472 168 -152 440 -353 595 -439 269 -149 562 -257 820 -303 22 -3 49 -8
60 -10 25 -5 216 -32 272 -38 22 -3 88 -8 145 -11 56 -4 114 -9 128 -12 46
-11 2141 -12 2219 -2 41 5 86 15 100 22 51 24 32 69 -34 81 -17 3 -114 8 -215
11 -102 3 -210 7 -240 10 -150 14 -178 16 -210 20 -19 3 -51 7 -70 9 -19 3
-48 7 -65 10 -16 2 -55 8 -85 12 -30 4 -57 8 -60 9 -3 1 -32 7 -65 14 -114 25
-292 85 -435 146 -70 30 -287 141 -352 180 -9 5 -38 23 -65 39 -46 28 -315
209 -337 227 -6 5 -67 53 -136 106 -69 53 -127 100 -130 103 -3 3 -36 32 -75
64 -76 63 -199 173 -310 276 -167 155 -598 597 -844 866 -30 32 -82 88 -115
124 -34 36 -97 106 -141 155 -44 49 -105 117 -135 150 -198 219 -417 471 -816
936 -186 217 -359 419 -384 449 -25 30 -76 90 -113 134 -38 45 -76 90 -85 101
-48 58 -118 141 -123 145 -3 3 -99 118 -214 255 -115 138 -268 320 -340 405
-71 85 -139 166 -150 179 -11 13 -24 29 -30 35 -8 9 -90 107 -176 211 -49 59
-205 243 -220 260 -18 20 -17 22 59 87 82 71 98 86 261 237 113 104 359 348
456 452 96 104 202 223 227 255 12 16 25 31 28 34 19 17 152 185 237 300 313
422 516 795 687 1265 26 72 83 262 90 299 2 12 11 48 19 81 16 64 42 194 52
260 17 119 24 176 29 235 4 36 8 92 11 125 8 83 8 399 0 460 -3 28 -8 70 -11
95 -8 73 -24 172 -34 210 -5 19 -11 48 -14 64 -36 207 -193 579 -345 822 -223
354 -529 679 -831 881 -270 180 -578 327 -935 444 -183 61 -521 145 -660 164
-22 4 -47 8 -55 10 -8 2 -35 7 -60 10 -24 4 -47 8 -50 10 -3 2 -37 7 -75 10
-39 4 -72 8 -75 10 -3 2 -37 7 -75 10 -38 4 -77 8 -86 10 -9 2 -52 6 -95 10
-43 4 -89 8 -102 10 -12 2 -73 7 -135 10 -61 4 -128 8 -147 10 -157 18 -831
23 -1350 10 -173 -4 -364 -9 -425 -10 -96 -2 -399 -11 -710 -20 -133 -4 -617
-5 -680 -1 -27 2 -151 6 -275 10 -124 5 -263 9 -310 11 -423 16 -1207 24
-1317 14 -119 -12 -182 -50 -137 -84 28 -20 91 -27 253 -31 139 -2 292 -11
356 -19 17 -2 53 -7 80 -10 484 -58 733 -329 809 -880 17 -123 26 -247 41
-595 3 -74 7 -332 5 -383 0 -12 -24 14 -62 65 -215 291 -521 620 -813 874
-397 345 -909 671 -1395 889 -58 26 -125 56 -150 67 -370 167 -1050 376 -1500
462 -14 2 -45 9 -70 14 -25 6 -61 13 -80 16 -19 3 -46 8 -60 11 -14 3 -39 7
-55 9 -17 3 -42 7 -55 10 -14 3 -43 8 -65 11 -22 3 -69 10 -105 16 -36 6 -76
12 -90 14 -39 5 -190 25 -235 31 -22 3 -51 7 -65 9 -14 2 -59 7 -100 10 -41 3
-86 8 -100 10 -14 2 -56 6 -95 10 -38 3 -92 8 -120 10 -207 18 -335 26 -700
42 -232 10 -2114 10 -2535 -1 -168 -4 -363 -9 -435 -10 -126 -4 -480 -15 -655
-21 -126 -5 -537 -5 -595 -1 -27 3 -111 7 -185 10 -124 6 -207 9 -545 21 -260
9 -1103 13 -1149 5z m4964 -604 c217 -9 543 -29 665 -41 17 -1 62 -6 100 -9
86 -8 159 -15 205 -21 19 -3 54 -7 78 -10 99 -12 128 -16 152 -20 23 -4 73
-11 140 -20 103 -14 379 -67 555 -106 176 -40 461 -119 640 -178 874 -287
1654 -769 2310 -1427 208 -209 292 -303 470 -524 322 -402 629 -919 824 -1385
35 -82 69 -163 76 -180 49 -110 158 -446 220 -678 33 -121 31 -114 54 -221 11
-48 22 -95 25 -102 3 -8 8 -36 12 -62 3 -26 8 -50 10 -53 4 -7 47 -262 58
-344 13 -99 16 -124 21 -178 4 -32 8 -68 11 -80 2 -12 7 -65 10 -117 3 -52 7
-105 10 -117 7 -38 17 -327 17 -528 0 -277 -15 -604 -37 -780 -2 -16 -7 -66
-11 -109 -4 -43 -8 -86 -10 -95 -1 -9 -6 -41 -10 -71 -3 -30 -8 -66 -10 -80
-3 -14 -7 -43 -9 -65 -3 -22 -7 -49 -10 -60 -4 -24 -14 -84 -22 -140 -3 -22
-9 -56 -14 -75 -5 -19 -11 -53 -15 -75 -3 -22 -7 -47 -10 -55 -2 -8 -6 -27 -9
-43 -3 -15 -7 -35 -10 -45 -3 -9 -7 -28 -10 -42 -2 -14 -14 -65 -26 -115 -12
-49 -23 -97 -25 -106 -17 -80 -131 -465 -145 -491 -6 -10 -10 -22 -10 -28 0
-5 -27 -81 -59 -167 -220 -589 -483 -1046 -821 -1428 -138 -156 -437 -430
-605 -555 -33 -25 -62 -48 -65 -51 -26 -31 -443 -304 -600 -393 -61 -34 -452
-229 -495 -247 -11 -4 -40 -17 -65 -28 -237 -103 -744 -272 -917 -305 -10 -2
-36 -9 -58 -14 -22 -6 -51 -13 -65 -16 -14 -3 -79 -16 -145 -30 -66 -13 -136
-27 -155 -30 -19 -3 -78 -12 -130 -20 -52 -8 -117 -18 -145 -21 -27 -3 -59 -7
-70 -9 -260 -49 -1180 -55 -1775 -12 -47 4 -105 8 -130 11 -25 2 -74 7 -110
10 -36 3 -99 10 -140 15 -41 5 -97 12 -125 15 -78 10 -292 44 -375 62 -41 8
-83 17 -92 18 -28 6 -207 55 -273 75 -391 118 -684 336 -763 566 -12 34 -23
72 -26 85 -2 13 -9 44 -14 69 -10 43 -16 76 -27 158 -3 20 -8 48 -10 62 -3 14
-7 46 -10 73 -3 26 -7 66 -10 90 -3 23 -7 69 -10 102 -3 33 -7 83 -10 110 -49
513 -60 1524 -59 5420 1 3539 7 4923 24 4986 31 112 221 197 530 234 95 11
119 14 181 20 103 9 176 14 309 21 69 4 126 8 128 9 5 4 774 -4 912 -9z
m10170 -520 c36 -4 88 -9 115 -12 117 -11 295 -38 355 -54 19 -5 51 -11 70
-14 19 -3 60 -13 90 -21 30 -9 80 -23 110 -31 120 -33 320 -109 450 -172 433
-210 789 -520 1061 -924 59 -88 69 -104 143 -238 180 -325 336 -834 382 -1245
3 -33 8 -68 10 -78 2 -10 6 -60 9 -110 3 -51 8 -105 10 -122 6 -43 7 -505 1
-605 -6 -108 -14 -187 -31 -322 -31 -238 -105 -554 -176 -749 -23 -63 -48
-132 -56 -154 -23 -63 -143 -304 -181 -365 -96 -150 -133 -203 -203 -290 -224
-278 -507 -478 -834 -588 -111 -37 -296 -82 -405 -97 -25 -4 -56 -8 -70 -10
-40 -6 -139 -15 -225 -21 -196 -13 -827 -1 -1085 21 -30 2 -91 7 -135 10 -44
4 -93 8 -110 10 -16 2 -57 7 -90 10 -88 8 -181 20 -265 35 -30 5 -71 12 -90
15 -70 12 -247 58 -315 82 -79 29 -129 58 -165 98 l-25 27 -3 2851 c-2 2701
-1 2854 15 2887 33 65 146 102 403 135 48 5 92 10 211 20 41 4 88 8 104 10 17
2 113 7 215 11 102 3 186 7 188 8 5 5 461 -2 522 -8z m-17762 -1798 c44 -93
70 -159 277 -708 80 -212 166 -437 190 -500 70 -185 306 -807 425 -1120 44
-118 94 -249 110 -290 16 -41 47 -122 69 -180 21 -58 82 -217 134 -355 53
-137 157 -412 231 -610 75 -198 141 -369 146 -380 4 -11 45 -119 90 -240 45
-121 86 -229 91 -240 40 -89 66 -175 55 -184 -13 -11 -3598 -12 -3616 -1 -13
8 -5 34 145 460 53 151 125 356 160 455 35 99 84 239 110 310 25 72 57 162 70
200 52 152 76 218 155 440 45 127 83 235 84 240 2 6 6 17 9 25 3 8 27 76 52
150 26 74 58 164 71 200 13 36 96 272 185 525 168 480 301 858 389 1105 28 80
53 152 55 160 2 8 13 40 24 70 11 30 51 144 90 253 97 271 109 297 142 297 13
0 29 -23 57 -82z"/>
</g>
</svg>
